<svg width="25" height="25" viewBox="0 0 25 25" fill="none" xmlns="http://www.w3.org/2000/svg">
<path d="M17.4014 3.9378C17.664 3.67516 17.9758 3.46682 18.319 3.32468C18.6621 3.18253 19.0299 3.10938 19.4014 3.10938C19.7728 3.10937 20.1406 3.18253 20.4838 3.32468C20.8269 3.46682 21.1387 3.67516 21.4014 3.9378C21.664 4.20045 21.8724 4.51225 22.0145 4.85541C22.1566 5.19857 22.2298 5.56637 22.2298 5.9378C22.2298 6.30924 22.1566 6.67703 22.0145 7.02019C21.8724 7.36335 21.664 7.67516 21.4014 7.9378L7.90137 21.4378L2.40137 22.9378L3.90137 17.4378L17.4014 3.9378Z" stroke="white" stroke-width="2" stroke-linecap="round" stroke-linejoin="round"/>
</svg>
